<svg width="139" height="37" viewBox="0 0 139 37" fill="none" xmlns="http://www.w3.org/2000/svg">
<path d="M7.79545 2.81818V29H0.6875V2.81818H7.79545ZM18.3232 17.9545V29H11.2663V9.36364H17.9652V13.0966H18.1697C18.5959 11.8523 19.3459 10.8764 20.4197 10.169C21.5021 9.46165 22.7635 9.10795 24.2038 9.10795C25.593 9.10795 26.799 9.42756 27.8217 10.0668C28.853 10.6974 29.6499 11.5668 30.2124 12.6747C30.7834 13.7827 31.0646 15.0483 31.0561 16.4716V29H23.9993V17.9545C24.0078 16.983 23.7607 16.2202 23.2578 15.6662C22.7635 15.1122 22.0732 14.8352 21.1868 14.8352C20.6072 14.8352 20.1001 14.9631 19.6655 15.2188C19.2393 15.4659 18.9112 15.8239 18.6811 16.2926C18.451 16.7528 18.3317 17.3068 18.3232 17.9545ZM46.25 9.36364V14.4773H33.3125V9.36364H46.25ZM35.8182 4.65909H42.875V22.6847C42.875 22.9574 42.9219 23.1875 43.0156 23.375C43.1094 23.554 43.2543 23.6903 43.4503 23.7841C43.6463 23.8693 43.8977 23.9119 44.2045 23.9119C44.4176 23.9119 44.6648 23.8864 44.946 23.8352C45.2358 23.7841 45.4489 23.7415 45.5852 23.7074L46.608 28.6676C46.2926 28.7614 45.8409 28.8764 45.2528 29.0128C44.6733 29.1491 43.983 29.2386 43.1818 29.2812C41.5625 29.3665 40.2031 29.2003 39.1037 28.7827C38.0043 28.3565 37.1776 27.6875 36.6236 26.7756C36.0696 25.8636 35.8011 24.7216 35.8182 23.3494V4.65909ZM58.3278 29.358C56.2312 29.358 54.4244 28.9574 52.9073 28.1562C51.3988 27.3466 50.2354 26.1875 49.4173 24.679C48.6076 23.1619 48.2028 21.3466 48.2028 19.233C48.2028 17.2045 48.6119 15.4318 49.43 13.9148C50.2482 12.3977 51.4031 11.2173 52.8945 10.3736C54.386 9.52983 56.146 9.10795 58.1744 9.10795C59.6573 9.10795 60.9996 9.33807 62.2014 9.7983C63.4031 10.2585 64.43 10.9276 65.2823 11.8054C66.1346 12.6747 66.7908 13.7315 67.2511 14.9759C67.7113 16.2202 67.9414 17.6222 67.9414 19.1818V20.8182H50.4016V16.9318H61.4471C61.4386 16.3693 61.2937 15.875 61.0124 15.4489C60.7397 15.0142 60.369 14.6776 59.9002 14.4389C59.44 14.1918 58.9158 14.0682 58.3278 14.0682C57.7567 14.0682 57.2326 14.1918 56.7553 14.4389C56.2781 14.6776 55.8945 15.0099 55.6048 15.4361C55.3235 15.8622 55.1744 16.3608 55.1573 16.9318V21.125C55.1573 21.7557 55.2894 22.3182 55.5536 22.8125C55.8178 23.3068 56.1971 23.6946 56.6914 23.9759C57.1857 24.2571 57.7823 24.3977 58.4812 24.3977C58.967 24.3977 59.4102 24.3295 59.8107 24.1932C60.2198 24.0568 60.5692 23.8608 60.859 23.6051C61.1488 23.3409 61.3619 23.0256 61.4982 22.6591H67.9414C67.7198 24.0227 67.1957 25.2074 66.369 26.2131C65.5423 27.2102 64.4471 27.9858 63.0835 28.5398C61.7283 29.0852 60.1431 29.358 58.3278 29.358ZM80.2812 36.7727C78.3125 36.7727 76.625 36.4915 75.2188 35.929C73.821 35.375 72.7344 34.608 71.9588 33.6278C71.1918 32.6563 70.7614 31.5398 70.6676 30.2784H77.4688C77.5369 30.696 77.7074 31.0327 77.9801 31.2884C78.2528 31.544 78.6023 31.7273 79.0284 31.8381C79.4631 31.9574 79.9489 32.017 80.4858 32.017C81.3977 32.017 82.152 31.7955 82.7486 31.3523C83.3537 30.9091 83.6562 30.108 83.6562 28.9489V25.625H83.4517C83.196 26.2898 82.804 26.8565 82.2756 27.3253C81.7472 27.7855 81.1122 28.1392 80.3707 28.3864C79.6293 28.625 78.8153 28.7443 77.929 28.7443C76.5312 28.7443 75.2443 28.4205 74.0682 27.7727C72.9006 27.125 71.9631 26.098 71.2557 24.6918C70.5568 23.2855 70.2074 21.4489 70.2074 19.1818C70.2074 16.8125 70.5739 14.8864 71.3068 13.4034C72.0483 11.9205 73.0028 10.8338 74.1705 10.1435C75.3466 9.45312 76.5824 9.10795 77.8778 9.10795C78.8494 9.10795 79.7017 9.27841 80.4347 9.61932C81.1676 9.9517 81.7813 10.3991 82.2756 10.9616C82.7699 11.5156 83.1449 12.125 83.4006 12.7898H83.554V9.36364H90.6108V28.9489C90.6108 30.6108 90.1804 32.0213 89.3196 33.1804C88.4673 34.348 87.2656 35.2386 85.7145 35.8523C84.1634 36.4659 82.3523 36.7727 80.2812 36.7727ZM80.5369 23.733C81.1847 23.733 81.7386 23.554 82.1989 23.196C82.6676 22.8295 83.0256 22.3097 83.2727 21.6364C83.5284 20.9545 83.6562 20.1364 83.6562 19.1818C83.6562 18.2102 83.5284 17.3793 83.2727 16.6889C83.0256 15.9901 82.6676 15.4574 82.1989 15.0909C81.7386 14.7159 81.1847 14.5284 80.5369 14.5284C79.8892 14.5284 79.3352 14.7159 78.875 15.0909C78.4233 15.4574 78.0739 15.9901 77.8267 16.6889C77.5881 17.3793 77.4688 18.2102 77.4688 19.1818C77.4688 20.1534 77.5881 20.9801 77.8267 21.6619C78.0739 22.3352 78.4233 22.8509 78.875 23.2088C79.3352 23.5582 79.8892 23.733 80.5369 23.733ZM94.1999 29V9.36364H101.052V13.0966H101.257C101.615 11.7159 102.181 10.706 102.957 10.0668C103.741 9.42756 104.657 9.10795 105.706 9.10795C106.012 9.10795 106.315 9.13352 106.613 9.18466C106.92 9.22727 107.214 9.29119 107.495 9.37642V15.3977C107.146 15.2784 106.716 15.1889 106.204 15.1293C105.693 15.0696 105.254 15.0398 104.887 15.0398C104.197 15.0398 103.575 15.1974 103.021 15.5128C102.475 15.8196 102.045 16.2543 101.73 16.8168C101.414 17.3707 101.257 18.0227 101.257 18.7727V29H94.1999ZM109.809 29V9.36364H116.866V29H109.809ZM113.338 7.31818C112.383 7.31818 111.565 7.00284 110.883 6.37216C110.201 5.74148 109.86 4.98295 109.86 4.09659C109.86 3.21023 110.201 2.4517 110.883 1.82102C111.565 1.19034 112.383 0.875 113.338 0.875C114.301 0.875 115.119 1.19034 115.792 1.82102C116.474 2.4517 116.815 3.21023 116.815 4.09659C116.815 4.98295 116.474 5.74148 115.792 6.37216C115.119 7.00284 114.301 7.31818 113.338 7.31818ZM138.411 15.7557H131.916C131.882 15.3551 131.741 15.0099 131.494 14.7202C131.247 14.4304 130.928 14.2088 130.536 14.0554C130.152 13.8935 129.726 13.8125 129.257 13.8125C128.652 13.8125 128.132 13.9233 127.697 14.1449C127.263 14.3665 127.05 14.6818 127.058 15.0909C127.05 15.3807 127.173 15.6491 127.429 15.8963C127.693 16.1435 128.2 16.3352 128.95 16.4716L132.939 17.1875C134.95 17.554 136.446 18.1719 137.426 19.0412C138.415 19.902 138.913 21.0568 138.922 22.5057C138.913 23.9034 138.496 25.1179 137.669 26.1491C136.851 27.1719 135.73 27.9645 134.307 28.527C132.892 29.081 131.277 29.358 129.462 29.358C126.462 29.358 124.114 28.7443 122.418 27.517C120.73 26.2898 119.788 24.6705 119.592 22.6591H126.598C126.692 23.2812 126.999 23.7628 127.518 24.1037C128.047 24.4361 128.712 24.6023 129.513 24.6023C130.161 24.6023 130.693 24.4915 131.111 24.2699C131.537 24.0483 131.754 23.733 131.763 23.3239C131.754 22.9489 131.567 22.6506 131.2 22.429C130.842 22.2074 130.28 22.0284 129.513 21.892L126.036 21.2784C124.033 20.929 122.533 20.2642 121.536 19.2841C120.538 18.304 120.044 17.0426 120.053 15.5C120.044 14.1364 120.402 12.9815 121.126 12.0355C121.859 11.081 122.903 10.3565 124.259 9.86222C125.622 9.35938 127.237 9.10795 129.104 9.10795C131.942 9.10795 134.179 9.69602 135.815 10.8722C137.46 12.0483 138.325 13.6761 138.411 15.7557Z" fill="url(#paint0_linear_7_56)"/>
<defs>
<linearGradient id="paint0_linear_7_56" x1="140" y1="16" x2="-1" y2="16" gradientUnits="userSpaceOnUse">
<stop stop-color="#4E32D1"/>
<stop offset="0.515" stop-color="#B325B7"/>
<stop offset="0.85" stop-color="#F9A15B"/>
<stop offset="1" stop-color="#F5BFA9"/>
</linearGradient>
</defs>
</svg>
